<svg width="84" height="84" viewBox="0 0 84 84" fill="none" xmlns="http://www.w3.org/2000/svg">
<path d="M42 18.8067C27 7.10013 12 11.0023 12 26.6112C12 46.1222 22 57.8288 29 69.5354C33 75.7789 42 69.5354 42 57.8288C42 69.5354 51 75.7789 55 69.5354C62 57.8288 72 46.1222 72 26.6112C72 11.0023 57 7.10013 42 18.8067Z" stroke="url(#paint0_linear_27342_5585)" stroke-width="6" stroke-linecap="round" stroke-linejoin="round"/>
<path d="M42 39.2379C44.7614 39.2379 47 37.4909 47 35.3357C47 33.1806 44.7614 31.4335 42 31.4335C39.2386 31.4335 37 33.1806 37 35.3357C37 37.4909 39.2386 39.2379 42 39.2379Z" fill="#00B4D8"/>
<path d="M25 23.6291L42 35.3357M42 35.3357L59 23.6291M42 35.3357V50.9445" stroke="#00B4D8" stroke-width="2" stroke-linecap="round" stroke-linejoin="round"/>
<path d="M25 25.9705C26.6569 25.9705 28 24.9222 28 23.6291C28 22.3361 26.6569 21.2878 25 21.2878C23.3431 21.2878 22 22.3361 22 23.6291C22 24.9222 23.3431 25.9705 25 25.9705Z" fill="#023E8A"/>
<path d="M59 25.9705C60.6569 25.9705 62 24.9222 62 23.6291C62 22.3361 60.6569 21.2878 59 21.2878C57.3431 21.2878 56 22.3361 56 23.6291C56 24.9222 57.3431 25.9705 59 25.9705Z" fill="#023E8A"/>
<defs>
<linearGradient id="paint0_linear_27342_5585" x1="12" y1="12" x2="72" y2="72" gradientUnits="userSpaceOnUse">
<stop stop-color="#00B4D8"/>
<stop offset="1" stop-color="#023E8A"/>
</linearGradient>
</defs>
</svg>
